<svg xmlns="http://www.w3.org/2000/svg" width="754.195" height="753.954" viewBox="0 0 754.195 753.954">
  <g id="LOGO_IMG" transform="translate(-218.907 -225)">
    <path id="Path_6" data-name="Path 6" d="M307.923,820.786c0-243.591,197.468-441.059,441.059-441.059a439.55,439.55,0,0,1,174.946,36.088C859.069,301.858,736.533,225,596.034,225,387.8,225,219,393.8,219,602.035a375.522,375.522,0,0,0,89.661,244.047C308.188,837.706,307.923,829.278,307.923,820.786Z" transform="translate(0.072 0)" fill="#181d9b"/>
    <path id="Path_7" data-name="Path 7" d="M936.7,633.688C732.78,766.932,459.456,709.639,326.212,505.722a439.567,439.567,0,0,1-65.483-166.194c-59.92,116.63-57.233,261.249,19.62,378.867a387.218,387.218,0,0,0,53.31,64.7c120.789,119.655,317.074,143.674,468.556,44.694A375.513,375.513,0,0,0,957.468,619.235Q947.341,626.7,936.7,633.688Z" transform="translate(0 89.156)" fill="#d6173c"/>
    <path id="Path_8" data-name="Path 8" d="M523.873,243.017c172.245,172.244,172.245,451.508,0,623.752a439.564,439.564,0,0,1-149.224,98.187c126.442,34.717,267.435,2.419,366.782-96.93,147.243-147.241,147.243-385.966,0-533.207A375.512,375.512,0,0,0,505.464,225.654Q514.849,234.033,523.873,243.017Z" transform="translate(121.24 0.509)" fill="#00bff8"/>
  </g>
</svg>
